<svg width="109" height="109" viewBox="0 0 109 109" fill="none"
    xmlns="http://www.w3.org/2000/svg">
    <path d="M105.108 25.3499C105.409 25.8727 105.703 26.4007 105.989 26.9336C105.47 26.5939 105.123 26.0129 105.108 25.3499Z" fill="white"/>
    <path d="M94.45 11.912C95.3571 12.7631 96.2369 13.6429 97.088 14.55C96.7589 15.1583 96.1152 15.5714 95.375 15.5714C94.3 15.5714 93.4286 14.7 93.4286 13.625C93.4286 12.8848 93.8417 12.2411 94.45 11.912Z" fill="white"/>
    <path d="M82.0664 3.01067C82.5993 3.29658 83.1273 3.59051 83.6501 3.89232C82.9871 3.87684 82.4061 3.52984 82.0664 3.01067Z" fill="white"/>
    <path d="M25.3499 3.89232C25.8727 3.59051 26.4007 3.29658 26.9336 3.01067C26.5939 3.52984 26.0129 3.87684 25.3499 3.89232Z" fill="white"/>
    <path d="M11.912 14.55C12.7631 13.6429 13.6429 12.7631 14.55 11.912C15.1583 12.2411 15.5714 12.8848 15.5714 13.625C15.5714 14.7 14.7 15.5714 13.625 15.5714C12.8848 15.5714 12.2411 15.1583 11.912 14.55Z" fill="white"/>
    <path d="M3.01067 26.9336C3.29658 26.4007 3.59051 25.8727 3.89232 25.3499C3.87684 26.0129 3.52984 26.5939 3.01067 26.9336Z" fill="white"/>
    <path d="M105.989 82.0664C105.703 82.5993 105.409 83.1273 105.108 83.6501C105.123 82.9871 105.47 82.4061 105.989 82.0664Z" fill="white"/>
    <path d="M97.088 94.45C96.7589 93.8417 96.1152 93.4286 95.375 93.4286C94.3 93.4286 93.4286 94.3 93.4286 95.375C93.4286 96.1152 93.8417 96.7589 94.45 97.088C95.3571 96.2369 96.2369 95.3571 97.088 94.45Z" fill="white"/>
    <path d="M83.6501 105.108C82.9871 105.123 82.4061 105.47 82.0664 105.989C82.5993 105.703 83.1273 105.409 83.6501 105.108Z" fill="white"/>
    <path d="M26.9336 105.989C26.5939 105.47 26.0129 105.123 25.3499 105.108C25.8727 105.409 26.4007 105.703 26.9336 105.989Z" fill="white"/>
    <path d="M14.55 97.088C15.1583 96.7589 15.5714 96.1152 15.5714 95.375C15.5714 94.3 14.7 93.4286 13.625 93.4286C12.8848 93.4286 12.2411 93.8417 11.912 94.45C12.7631 95.3571 13.6429 96.2369 14.55 97.088Z" fill="white"/>
    <path d="M3.89232 83.6501C3.87684 82.9871 3.52984 82.4061 3.01067 82.0664C3.29658 82.5993 3.59051 83.1273 3.89232 83.6501Z" fill="white"/>
    <path d="M38.9286 1.94643C38.9286 3.02141 38.0571 3.89286 36.9821 3.89286C35.9072 3.89286 35.0357 3.02141 35.0357 1.94643C35.0357 0.871446 35.9072 0 36.9821 0C38.0571 0 38.9286 0.871446 38.9286 1.94643Z" fill="white"/>
    <path d="M50.6071 1.94643C50.6071 3.02141 49.7357 3.89286 48.6607 3.89286C47.5857 3.89286 46.7143 3.02141 46.7143 1.94643C46.7143 0.871446 47.5857 0 48.6607 0C49.7357 0 50.6071 0.871446 50.6071 1.94643Z" fill="white"/>
    <path d="M62.2857 1.94643C62.2857 3.02141 61.4143 3.89286 60.3393 3.89286C59.2643 3.89286 58.3929 3.02141 58.3929 1.94643C58.3929 0.871446 59.2643 0 60.3393 0C61.4143 0 62.2857 0.871446 62.2857 1.94643Z" fill="white"/>
    <path d="M73.9643 1.94643C73.9643 3.02141 73.0928 3.89286 72.0179 3.89286C70.9429 3.89286 70.0714 3.02141 70.0714 1.94643C70.0714 0.871446 70.9429 0 72.0179 0C73.0928 0 73.9643 0.871446 73.9643 1.94643Z" fill="white"/>
    <path d="M27.25 13.625C27.25 14.7 26.3786 15.5714 25.3036 15.5714C24.2286 15.5714 23.3571 14.7 23.3571 13.625C23.3571 12.55 24.2286 11.6786 25.3036 11.6786C26.3786 11.6786 27.25 12.55 27.25 13.625Z" fill="white"/>
    <path d="M38.9286 13.625C38.9286 14.7 38.0571 15.5714 36.9821 15.5714C35.9072 15.5714 35.0357 14.7 35.0357 13.625C35.0357 12.55 35.9072 11.6786 36.9821 11.6786C38.0571 11.6786 38.9286 12.55 38.9286 13.625Z" fill="white"/>
    <path d="M50.6071 13.625C50.6071 14.7 49.7357 15.5714 48.6607 15.5714C47.5857 15.5714 46.7143 14.7 46.7143 13.625C46.7143 12.55 47.5857 11.6786 48.6607 11.6786C49.7357 11.6786 50.6071 12.55 50.6071 13.625Z" fill="white"/>
    <path d="M62.2857 13.625C62.2857 14.7 61.4143 15.5714 60.3393 15.5714C59.2643 15.5714 58.3929 14.7 58.3929 13.625C58.3929 12.55 59.2643 11.6786 60.3393 11.6786C61.4143 11.6786 62.2857 12.55 62.2857 13.625Z" fill="white"/>
    <path d="M73.9643 13.625C73.9643 14.7 73.0928 15.5714 72.0179 15.5714C70.9429 15.5714 70.0714 14.7 70.0714 13.625C70.0714 12.55 70.9429 11.6786 72.0179 11.6786C73.0928 11.6786 73.9643 12.55 73.9643 13.625Z" fill="white"/>
    <path d="M85.6429 13.625C85.6429 14.7 84.7714 15.5714 83.6964 15.5714C82.6214 15.5714 81.75 14.7 81.75 13.625C81.75 12.55 82.6214 11.6786 83.6964 11.6786C84.7714 11.6786 85.6429 12.55 85.6429 13.625Z" fill="white"/>
    <path d="M15.5714 25.3036C15.5714 26.3786 14.7 27.25 13.625 27.25C12.55 27.25 11.6786 26.3786 11.6786 25.3036C11.6786 24.2286 12.55 23.3571 13.625 23.3571C14.7 23.3571 15.5714 24.2286 15.5714 25.3036Z" fill="white"/>
    <path d="M27.25 25.3036C27.25 26.3786 26.3786 27.25 25.3036 27.25C24.2286 27.25 23.3571 26.3786 23.3571 25.3036C23.3571 24.2286 24.2286 23.3571 25.3036 23.3571C26.3786 23.3571 27.25 24.2286 27.25 25.3036Z" fill="white"/>
    <path d="M38.9286 25.3036C38.9286 26.3786 38.0571 27.25 36.9821 27.25C35.9072 27.25 35.0357 26.3786 35.0357 25.3036C35.0357 24.2286 35.9072 23.3571 36.9821 23.3571C38.0571 23.3571 38.9286 24.2286 38.9286 25.3036Z" fill="white"/>
    <path d="M50.6071 25.3036C50.6071 26.3786 49.7357 27.25 48.6607 27.25C47.5857 27.25 46.7143 26.3786 46.7143 25.3036C46.7143 24.2286 47.5857 23.3571 48.6607 23.3571C49.7357 23.3571 50.6071 24.2286 50.6071 25.3036Z" fill="white"/>
    <path d="M62.2857 25.3036C62.2857 26.3786 61.4143 27.25 60.3393 27.25C59.2643 27.25 58.3929 26.3786 58.3929 25.3036C58.3929 24.2286 59.2643 23.3571 60.3393 23.3571C61.4143 23.3571 62.2857 24.2286 62.2857 25.3036Z" fill="white"/>
    <path d="M73.9643 25.3036C73.9643 26.3786 73.0928 27.25 72.0179 27.25C70.9429 27.25 70.0714 26.3786 70.0714 25.3036C70.0714 24.2286 70.9429 23.3571 72.0179 23.3571C73.0928 23.3571 73.9643 24.2286 73.9643 25.3036Z" fill="white"/>
    <path d="M85.6429 25.3036C85.6429 26.3786 84.7714 27.25 83.6964 27.25C82.6214 27.25 81.75 26.3786 81.75 25.3036C81.75 24.2286 82.6214 23.3571 83.6964 23.3571C84.7714 23.3571 85.6429 24.2286 85.6429 25.3036Z" fill="white"/>
    <path d="M97.3214 25.3036C97.3214 26.3786 96.45 27.25 95.375 27.25C94.3 27.25 93.4286 26.3786 93.4286 25.3036C93.4286 24.2286 94.3 23.3571 95.375 23.3571C96.45 23.3571 97.3214 24.2286 97.3214 25.3036Z" fill="white"/>
    <path d="M3.89286 36.9821C3.89286 38.0571 3.02141 38.9286 1.94643 38.9286C0.871446 38.9286 0 38.0571 0 36.9821C0 35.9072 0.871446 35.0357 1.94643 35.0357C3.02141 35.0357 3.89286 35.9072 3.89286 36.9821Z" fill="white"/>
    <path d="M15.5714 36.9821C15.5714 38.0571 14.7 38.9286 13.625 38.9286C12.55 38.9286 11.6786 38.0571 11.6786 36.9821C11.6786 35.9072 12.55 35.0357 13.625 35.0357C14.7 35.0357 15.5714 35.9072 15.5714 36.9821Z" fill="white"/>
    <path d="M27.25 36.9821C27.25 38.0571 26.3786 38.9286 25.3036 38.9286C24.2286 38.9286 23.3571 38.0571 23.3571 36.9821C23.3571 35.9072 24.2286 35.0357 25.3036 35.0357C26.3786 35.0357 27.25 35.9072 27.25 36.9821Z" fill="white"/>
    <path d="M38.9286 36.9821C38.9286 38.0571 38.0571 38.9286 36.9821 38.9286C35.9072 38.9286 35.0357 38.0571 35.0357 36.9821C35.0357 35.9072 35.9072 35.0357 36.9821 35.0357C38.0571 35.0357 38.9286 35.9072 38.9286 36.9821Z" fill="white"/>
    <path d="M50.6071 36.9821C50.6071 38.0571 49.7357 38.9286 48.6607 38.9286C47.5857 38.9286 46.7143 38.0571 46.7143 36.9821C46.7143 35.9072 47.5857 35.0357 48.6607 35.0357C49.7357 35.0357 50.6071 35.9072 50.6071 36.9821Z" fill="white"/>
    <path d="M62.2857 36.9821C62.2857 38.0571 61.4143 38.9286 60.3393 38.9286C59.2643 38.9286 58.3929 38.0571 58.3929 36.9821C58.3929 35.9072 59.2643 35.0357 60.3393 35.0357C61.4143 35.0357 62.2857 35.9072 62.2857 36.9821Z" fill="white"/>
    <path d="M73.9643 36.9821C73.9643 38.0571 73.0928 38.9286 72.0179 38.9286C70.9429 38.9286 70.0714 38.0571 70.0714 36.9821C70.0714 35.9072 70.9429 35.0357 72.0179 35.0357C73.0928 35.0357 73.9643 35.9072 73.9643 36.9821Z" fill="white"/>
    <path d="M85.6429 36.9821C85.6429 38.0571 84.7714 38.9286 83.6964 38.9286C82.6214 38.9286 81.75 38.0571 81.75 36.9821C81.75 35.9072 82.6214 35.0357 83.6964 35.0357C84.7714 35.0357 85.6429 35.9072 85.6429 36.9821Z" fill="white"/>
    <path d="M97.3214 36.9821C97.3214 38.0571 96.45 38.9286 95.375 38.9286C94.3 38.9286 93.4286 38.0571 93.4286 36.9821C93.4286 35.9072 94.3 35.0357 95.375 35.0357C96.45 35.0357 97.3214 35.9072 97.3214 36.9821Z" fill="white"/>
    <path d="M109 36.9821C109 38.0571 108.129 38.9286 107.054 38.9286C105.979 38.9286 105.107 38.0571 105.107 36.9821C105.107 35.9072 105.979 35.0357 107.054 35.0357C108.129 35.0357 109 35.9072 109 36.9821Z" fill="white"/>
    <path d="M3.89286 48.6607C3.89286 49.7357 3.02141 50.6071 1.94643 50.6071C0.871446 50.6071 0 49.7357 0 48.6607C0 47.5857 0.871446 46.7143 1.94643 46.7143C3.02141 46.7143 3.89286 47.5857 3.89286 48.6607Z" fill="white"/>
    <path d="M15.5714 48.6607C15.5714 49.7357 14.7 50.6071 13.625 50.6071C12.55 50.6071 11.6786 49.7357 11.6786 48.6607C11.6786 47.5857 12.55 46.7143 13.625 46.7143C14.7 46.7143 15.5714 47.5857 15.5714 48.6607Z" fill="white"/>
    <path d="M27.25 48.6607C27.25 49.7357 26.3786 50.6071 25.3036 50.6071C24.2286 50.6071 23.3571 49.7357 23.3571 48.6607C23.3571 47.5857 24.2286 46.7143 25.3036 46.7143C26.3786 46.7143 27.25 47.5857 27.25 48.6607Z" fill="white"/>
    <path d="M38.9286 48.6607C38.9286 49.7357 38.0571 50.6071 36.9821 50.6071C35.9072 50.6071 35.0357 49.7357 35.0357 48.6607C35.0357 47.5857 35.9072 46.7143 36.9821 46.7143C38.0571 46.7143 38.9286 47.5857 38.9286 48.6607Z" fill="white"/>
    <path d="M50.6071 48.6607C50.6071 49.7357 49.7357 50.6071 48.6607 50.6071C47.5857 50.6071 46.7143 49.7357 46.7143 48.6607C46.7143 47.5857 47.5857 46.7143 48.6607 46.7143C49.7357 46.7143 50.6071 47.5857 50.6071 48.6607Z" fill="white"/>
    <path d="M62.2857 48.6607C62.2857 49.7357 61.4143 50.6071 60.3393 50.6071C59.2643 50.6071 58.3929 49.7357 58.3929 48.6607C58.3929 47.5857 59.2643 46.7143 60.3393 46.7143C61.4143 46.7143 62.2857 47.5857 62.2857 48.6607Z" fill="white"/>
    <path d="M73.9643 48.6607C73.9643 49.7357 73.0928 50.6071 72.0179 50.6071C70.9429 50.6071 70.0714 49.7357 70.0714 48.6607C70.0714 47.5857 70.9429 46.7143 72.0179 46.7143C73.0928 46.7143 73.9643 47.5857 73.9643 48.6607Z" fill="white"/>
    <path d="M85.6429 48.6607C85.6429 49.7357 84.7714 50.6071 83.6964 50.6071C82.6214 50.6071 81.75 49.7357 81.75 48.6607C81.75 47.5857 82.6214 46.7143 83.6964 46.7143C84.7714 46.7143 85.6429 47.5857 85.6429 48.6607Z" fill="white"/>
    <path d="M97.3214 48.6607C97.3214 49.7357 96.45 50.6071 95.375 50.6071C94.3 50.6071 93.4286 49.7357 93.4286 48.6607C93.4286 47.5857 94.3 46.7143 95.375 46.7143C96.45 46.7143 97.3214 47.5857 97.3214 48.6607Z" fill="white"/>
    <path d="M109 48.6607C109 49.7357 108.129 50.6071 107.054 50.6071C105.979 50.6071 105.107 49.7357 105.107 48.6607C105.107 47.5857 105.979 46.7143 107.054 46.7143C108.129 46.7143 109 47.5857 109 48.6607Z" fill="white"/>
    <path d="M3.89286 60.3393C3.89286 61.4143 3.02141 62.2857 1.94643 62.2857C0.871446 62.2857 0 61.4143 0 60.3393C0 59.2643 0.871446 58.3929 1.94643 58.3929C3.02141 58.3929 3.89286 59.2643 3.89286 60.3393Z" fill="white"/>
    <path d="M15.5714 60.3393C15.5714 61.4143 14.7 62.2857 13.625 62.2857C12.55 62.2857 11.6786 61.4143 11.6786 60.3393C11.6786 59.2643 12.55 58.3929 13.625 58.3929C14.7 58.3929 15.5714 59.2643 15.5714 60.3393Z" fill="white"/>
    <path d="M27.25 60.3393C27.25 61.4143 26.3786 62.2857 25.3036 62.2857C24.2286 62.2857 23.3571 61.4143 23.3571 60.3393C23.3571 59.2643 24.2286 58.3929 25.3036 58.3929C26.3786 58.3929 27.25 59.2643 27.25 60.3393Z" fill="white"/>
    <path d="M38.9286 60.3393C38.9286 61.4143 38.0571 62.2857 36.9821 62.2857C35.9072 62.2857 35.0357 61.4143 35.0357 60.3393C35.0357 59.2643 35.9072 58.3929 36.9821 58.3929C38.0571 58.3929 38.9286 59.2643 38.9286 60.3393Z" fill="white"/>
    <path d="M50.6071 60.3393C50.6071 61.4143 49.7357 62.2857 48.6607 62.2857C47.5857 62.2857 46.7143 61.4143 46.7143 60.3393C46.7143 59.2643 47.5857 58.3929 48.6607 58.3929C49.7357 58.3929 50.6071 59.2643 50.6071 60.3393Z" fill="white"/>
    <path d="M62.2857 60.3393C62.2857 61.4143 61.4143 62.2857 60.3393 62.2857C59.2643 62.2857 58.3929 61.4143 58.3929 60.3393C58.3929 59.2643 59.2643 58.3929 60.3393 58.3929C61.4143 58.3929 62.2857 59.2643 62.2857 60.3393Z" fill="white"/>
    <path d="M73.9643 60.3393C73.9643 61.4143 73.0928 62.2857 72.0179 62.2857C70.9429 62.2857 70.0714 61.4143 70.0714 60.3393C70.0714 59.2643 70.9429 58.3929 72.0179 58.3929C73.0928 58.3929 73.9643 59.2643 73.9643 60.3393Z" fill="white"/>
    <path d="M85.6429 60.3393C85.6429 61.4143 84.7714 62.2857 83.6964 62.2857C82.6214 62.2857 81.75 61.4143 81.75 60.3393C81.75 59.2643 82.6214 58.3929 83.6964 58.3929C84.7714 58.3929 85.6429 59.2643 85.6429 60.3393Z" fill="white"/>
    <path d="M97.3214 60.3393C97.3214 61.4143 96.45 62.2857 95.375 62.2857C94.3 62.2857 93.4286 61.4143 93.4286 60.3393C93.4286 59.2643 94.3 58.3929 95.375 58.3929C96.45 58.3929 97.3214 59.2643 97.3214 60.3393Z" fill="white"/>
    <path d="M109 60.3393C109 61.4143 108.129 62.2857 107.054 62.2857C105.979 62.2857 105.107 61.4143 105.107 60.3393C105.107 59.2643 105.979 58.3929 107.054 58.3929C108.129 58.3929 109 59.2643 109 60.3393Z" fill="white"/>
    <path d="M3.89286 72.0179C3.89286 73.0928 3.02141 73.9643 1.94643 73.9643C0.871446 73.9643 0 73.0928 0 72.0179C0 70.9429 0.871446 70.0714 1.94643 70.0714C3.02141 70.0714 3.89286 70.9429 3.89286 72.0179Z" fill="white"/>
    <path d="M15.5714 72.0179C15.5714 73.0928 14.7 73.9643 13.625 73.9643C12.55 73.9643 11.6786 73.0928 11.6786 72.0179C11.6786 70.9429 12.55 70.0714 13.625 70.0714C14.7 70.0714 15.5714 70.9429 15.5714 72.0179Z" fill="white"/>
    <path d="M27.25 72.0179C27.25 73.0928 26.3786 73.9643 25.3036 73.9643C24.2286 73.9643 23.3571 73.0928 23.3571 72.0179C23.3571 70.9429 24.2286 70.0714 25.3036 70.0714C26.3786 70.0714 27.25 70.9429 27.25 72.0179Z" fill="white"/>
    <path d="M38.9286 72.0179C38.9286 73.0928 38.0571 73.9643 36.9821 73.9643C35.9072 73.9643 35.0357 73.0928 35.0357 72.0179C35.0357 70.9429 35.9072 70.0714 36.9821 70.0714C38.0571 70.0714 38.9286 70.9429 38.9286 72.0179Z" fill="white"/>
    <path d="M50.6071 72.0179C50.6071 73.0928 49.7357 73.9643 48.6607 73.9643C47.5857 73.9643 46.7143 73.0928 46.7143 72.0179C46.7143 70.9429 47.5857 70.0714 48.6607 70.0714C49.7357 70.0714 50.6071 70.9429 50.6071 72.0179Z" fill="white"/>
    <path d="M62.2857 72.0179C62.2857 73.0928 61.4143 73.9643 60.3393 73.9643C59.2643 73.9643 58.3929 73.0928 58.3929 72.0179C58.3929 70.9429 59.2643 70.0714 60.3393 70.0714C61.4143 70.0714 62.2857 70.9429 62.2857 72.0179Z" fill="white"/>
    <path d="M73.9643 72.0179C73.9643 73.0928 73.0928 73.9643 72.0179 73.9643C70.9429 73.9643 70.0714 73.0928 70.0714 72.0179C70.0714 70.9429 70.9429 70.0714 72.0179 70.0714C73.0928 70.0714 73.9643 70.9429 73.9643 72.0179Z" fill="white"/>
    <path d="M85.6429 72.0179C85.6429 73.0928 84.7714 73.9643 83.6964 73.9643C82.6214 73.9643 81.75 73.0928 81.75 72.0179C81.75 70.9429 82.6214 70.0714 83.6964 70.0714C84.7714 70.0714 85.6429 70.9429 85.6429 72.0179Z" fill="white"/>
    <path d="M97.3214 72.0179C97.3214 73.0928 96.45 73.9643 95.375 73.9643C94.3 73.9643 93.4286 73.0928 93.4286 72.0179C93.4286 70.9429 94.3 70.0714 95.375 70.0714C96.45 70.0714 97.3214 70.9429 97.3214 72.0179Z" fill="white"/>
    <path d="M109 72.0179C109 73.0928 108.129 73.9643 107.054 73.9643C105.979 73.9643 105.107 73.0928 105.107 72.0179C105.107 70.9429 105.979 70.0714 107.054 70.0714C108.129 70.0714 109 70.9429 109 72.0179Z" fill="white"/>
    <path d="M15.5714 83.6964C15.5714 84.7714 14.7 85.6429 13.625 85.6429C12.55 85.6429 11.6786 84.7714 11.6786 83.6964C11.6786 82.6214 12.55 81.75 13.625 81.75C14.7 81.75 15.5714 82.6214 15.5714 83.6964Z" fill="white"/>
    <path d="M27.25 83.6964C27.25 84.7714 26.3786 85.6429 25.3036 85.6429C24.2286 85.6429 23.3571 84.7714 23.3571 83.6964C23.3571 82.6214 24.2286 81.75 25.3036 81.75C26.3786 81.75 27.25 82.6214 27.25 83.6964Z" fill="white"/>
    <path d="M38.9286 83.6964C38.9286 84.7714 38.0571 85.6429 36.9821 85.6429C35.9072 85.6429 35.0357 84.7714 35.0357 83.6964C35.0357 82.6214 35.9072 81.75 36.9821 81.75C38.0571 81.75 38.9286 82.6214 38.9286 83.6964Z" fill="white"/>
    <path d="M50.6071 83.6964C50.6071 84.7714 49.7357 85.6429 48.6607 85.6429C47.5857 85.6429 46.7143 84.7714 46.7143 83.6964C46.7143 82.6214 47.5857 81.75 48.6607 81.75C49.7357 81.75 50.6071 82.6214 50.6071 83.6964Z" fill="white"/>
    <path d="M62.2857 83.6964C62.2857 84.7714 61.4143 85.6429 60.3393 85.6429C59.2643 85.6429 58.3929 84.7714 58.3929 83.6964C58.3929 82.6214 59.2643 81.75 60.3393 81.75C61.4143 81.75 62.2857 82.6214 62.2857 83.6964Z" fill="white"/>
    <path d="M73.9643 83.6964C73.9643 84.7714 73.0928 85.6429 72.0179 85.6429C70.9429 85.6429 70.0714 84.7714 70.0714 83.6964C70.0714 82.6214 70.9429 81.75 72.0179 81.75C73.0928 81.75 73.9643 82.6214 73.9643 83.6964Z" fill="white"/>
    <path d="M85.6429 83.6964C85.6429 84.7714 84.7714 85.6429 83.6964 85.6429C82.6214 85.6429 81.75 84.7714 81.75 83.6964C81.75 82.6214 82.6214 81.75 83.6964 81.75C84.7714 81.75 85.6429 82.6214 85.6429 83.6964Z" fill="white"/>
    <path d="M97.3214 83.6964C97.3214 84.7714 96.45 85.6429 95.375 85.6429C94.3 85.6429 93.4286 84.7714 93.4286 83.6964C93.4286 82.6214 94.3 81.75 95.375 81.75C96.45 81.75 97.3214 82.6214 97.3214 83.6964Z" fill="white"/>
    <path d="M27.25 95.375C27.25 96.45 26.3786 97.3214 25.3036 97.3214C24.2286 97.3214 23.3571 96.45 23.3571 95.375C23.3571 94.3 24.2286 93.4286 25.3036 93.4286C26.3786 93.4286 27.25 94.3 27.25 95.375Z" fill="white"/>
    <path d="M38.9286 95.375C38.9286 96.45 38.0571 97.3214 36.9821 97.3214C35.9072 97.3214 35.0357 96.45 35.0357 95.375C35.0357 94.3 35.9072 93.4286 36.9821 93.4286C38.0571 93.4286 38.9286 94.3 38.9286 95.375Z" fill="white"/>
    <path d="M50.6071 95.375C50.6071 96.45 49.7357 97.3214 48.6607 97.3214C47.5857 97.3214 46.7143 96.45 46.7143 95.375C46.7143 94.3 47.5857 93.4286 48.6607 93.4286C49.7357 93.4286 50.6071 94.3 50.6071 95.375Z" fill="white"/>
    <path d="M62.2857 95.375C62.2857 96.45 61.4143 97.3214 60.3393 97.3214C59.2643 97.3214 58.3929 96.45 58.3929 95.375C58.3929 94.3 59.2643 93.4286 60.3393 93.4286C61.4143 93.4286 62.2857 94.3 62.2857 95.375Z" fill="white"/>
    <path d="M73.9643 95.375C73.9643 96.45 73.0928 97.3214 72.0179 97.3214C70.9429 97.3214 70.0714 96.45 70.0714 95.375C70.0714 94.3 70.9429 93.4286 72.0179 93.4286C73.0928 93.4286 73.9643 94.3 73.9643 95.375Z" fill="white"/>
    <path d="M85.6429 95.375C85.6429 96.45 84.7714 97.3214 83.6964 97.3214C82.6214 97.3214 81.75 96.45 81.75 95.375C81.75 94.3 82.6214 93.4286 83.6964 93.4286C84.7714 93.4286 85.6429 94.3 85.6429 95.375Z" fill="white"/>
    <path d="M38.9286 107.054C38.9286 108.129 38.0571 109 36.9821 109C35.9072 109 35.0357 108.129 35.0357 107.054C35.0357 105.979 35.9072 105.107 36.9821 105.107C38.0571 105.107 38.9286 105.979 38.9286 107.054Z" fill="white"/>
    <path d="M50.6071 107.054C50.6071 108.129 49.7357 109 48.6607 109C47.5857 109 46.7143 108.129 46.7143 107.054C46.7143 105.979 47.5857 105.107 48.6607 105.107C49.7357 105.107 50.6071 105.979 50.6071 107.054Z" fill="white"/>
    <path d="M62.2857 107.054C62.2857 108.129 61.4143 109 60.3393 109C59.2643 109 58.3929 108.129 58.3929 107.054C58.3929 105.979 59.2643 105.107 60.3393 105.107C61.4143 105.107 62.2857 105.979 62.2857 107.054Z" fill="white"/>
    <path d="M73.9643 107.054C73.9643 108.129 73.0928 109 72.0179 109C70.9429 109 70.0714 108.129 70.0714 107.054C70.0714 105.979 70.9429 105.107 72.0179 105.107C73.0928 105.107 73.9643 105.979 73.9643 107.054Z" fill="white"/>
</svg>
