<svg xmlns="http://www.w3.org/2000/svg" viewBox="0 0 500 500">
    <g id="freepik--Sea--inject-70">
        <g id="freepik--sea--inject-70">
            <ellipse cx="251" cy="358.01" rx="213.63" ry="123.34" style="fill:#407BFF"></ellipse>
            <ellipse cx="251" cy="358.01" rx="213.63" ry="123.34" style="fill:#fff;opacity:0.8"></ellipse>
        </g>
    </g>
    <g id="freepik--Land--inject-70">
        <path d="M129,335.23,129.1,365c0,17.43,15.41,37.33,38.45,50.63,46.09,26.61,120.8,26.61,166.89,0,23-13.3,38.46-33.2,38.46-50.63l.1-29.74h0c0-17.43-15.52-34.87-38.56-48.17-46.09-26.61-120.8-26.61-166.88,0C144.51,300.36,129,317.8,129,335.23Z" style="fill:#455a64"></path>
        <path d="M338.59,294.61c-48.38-27.93-126.81-27.93-175.19,0-11.19,6.46-19.79,13.86-25.8,21.75-3.07,6.16-8.61,12.52-8.61,18.87h0L129.1,365c4.32,13.86,15.75,27.13,34.3,37.84,48.38,27.93,126.81,27.93,175.19,0,18.56-10.71,30-24,34.31-37.84l.1-29.74c0-6.35-5.54-12.71-8.6-18.87C358.38,308.47,349.78,301.07,338.59,294.61Z" style="fill:#37474f"></path>
        <path d="M127.12,334.54v7.06c0,18.31,12.1,36.61,36.28,50.57,48.38,27.93,126.81,27.93,175.19,0,24.19-14,36.28-32.26,36.28-50.57v-7.06h0c0-18.3-12.09-36.6-36.28-50.57C290.21,256,211.78,256,163.4,284c-24.18,14-36.28,32.27-36.28,50.58Z" style="fill:#407BFF"></path>
        <path d="M127.12,334.54v7.06c0,18.31,12.1,36.61,36.28,50.57,48.38,27.93,126.81,27.93,175.19,0,24.19-14,36.28-32.26,36.28-50.57v-7.06h0c0-18.3-12.09-36.6-36.28-50.57C290.21,256,211.78,256,163.4,284c-24.18,14-36.28,32.27-36.28,50.58Z" style="opacity:0.15"></path>
        <path d="M338.6,284C290.22,256,211.79,256,163.41,284s-48.37,73.22,0,101.15,126.81,27.93,175.19,0S387,311.9,338.6,284Z" style="fill:#407BFF"></path>
    </g>
    <g id="freepik--Clouds--inject-70">
        <g id="freepik--clouds--inject-70">
            <path d="M331.53,135l3.05,1,.29-7.5c.23-6,4.6-7.74,9.18-5.16h0c4.58,2.58,8.1,9.49,7.88,15.44l-.05,1.08a4.07,4.07,0,0,1,3.92.34h0c3.29,1.85,5.83,6.83,5.67,11.11l0,.49,4.22,2.38c2.17,1.22,3.84,4.49,3.73,7.31s-2,4.11-4.12,2.89l-34.14-19.22c-2.17-1.22-3.84-4.49-3.73-7.31S329.36,133.74,331.53,135Z" style="fill:#ebebeb"></path>
            <path d="M296.32,157.32l2.47.85.23-6.08c.19-4.81,3.73-6.26,7.43-4.17h0c3.71,2.08,6.56,7.68,6.38,12.49l0,.88a3.26,3.26,0,0,1,3.16.27h0c2.67,1.5,4.72,5.53,4.59,9v.4l3.41,1.93a7,7,0,0,1,3,5.92c-.09,2.28-1.58,3.33-3.33,2.34L296,165.58a7,7,0,0,1-3-5.92C293.07,157.38,294.57,156.33,296.32,157.32Z" style="fill:#ebebeb"></path>
        </g>
    </g>
    <g id="freepik--Trees--inject-70">
        <rect x="355.13" y="307.74" width="8.52" height="0.7" transform="translate(-78 489.12) rotate(-63.09)" style="fill:#263238"></rect>
        <rect x="355.09" y="303.17" width="0.7" height="7.14" transform="translate(-108.23 232.99) rotate(-31.76)" style="fill:#263238"></rect>
        <path d="M358,302.8v18.3a.27.27,0,0,1-.17.24.91.91,0,0,1-.82,0,.29.29,0,0,1-.17-.24V302.8Z" style="fill:#263238"></path>
        <path d="M371.88,297.11a8.5,8.5,0,1,1-8.5-8.5A8.51,8.51,0,0,1,371.88,297.11Z" style="fill:#455a64"></path>
        <path d="M366,294.93c1.1-3.45,2.27-4.8,1.53-5.22a8.5,8.5,0,1,0,2.37,12.81C367.42,303.25,364.62,299.41,366,294.93Z" style="fill:#37474f"></path>
        <circle cx="349.99" cy="299.51" r="5.97" style="fill:#455a64"></circle>
        <path d="M350,293.54a5.94,5.94,0,0,0-3.49,1.13c-.16,3.65,2.94,7.2,2.07,8.4s-3,.46-3.74-.55a6,6,0,1,0,5.16-9Z" style="fill:#37474f"></path>
        <circle cx="357.46" cy="293.07" r="10.96" style="fill:#455a64"></circle>
        <path d="M368.13,295.58a11,11,0,1,1-16.06-12.05,11.14,11.14,0,0,0-2.57,2,11.49,11.49,0,0,0-.29,2.51,11,11,0,0,0,18.92,7.53Z" style="fill:#263238;opacity:0.2"></path>
        <rect x="158" y="359.34" width="8.52" height="0.7" transform="translate(-231.92 341.58) rotate(-63.09)" style="fill:#263238"></rect>
        <rect x="157.96" y="354.78" width="0.7" height="7.14" transform="translate(-164.9 136.96) rotate(-31.76)" style="fill:#263238"></rect>
        <path d="M160.92,354.41v18.3a.29.29,0,0,1-.17.23.87.87,0,0,1-.83,0,.29.29,0,0,1-.17-.23v-18.3Z" style="fill:#263238"></path>
        <path d="M174.75,348.71a8.5,8.5,0,1,1-8.5-8.5A8.5,8.5,0,0,1,174.75,348.71Z" style="fill:#455a64"></path>
        <path d="M168.92,346.54c1.09-3.45,2.26-4.8,1.52-5.23a8.5,8.5,0,1,0,2.37,12.81C170.29,354.85,167.5,351,168.92,346.54Z" style="fill:#37474f"></path>
        <circle cx="152.86" cy="351.12" r="5.97" style="fill:#455a64"></circle>
        <path d="M152.86,345.14a6,6,0,0,0-3.49,1.13c-.16,3.65,2.94,7.21,2.07,8.4s-3,.46-3.74-.55a6,6,0,1,0,5.16-9Z" style="fill:#37474f"></path>
        <circle cx="160.33" cy="344.68" r="10.96" style="fill:#455a64"></circle>
        <path d="M171,347.18a11,11,0,1,1-16.06-12,11.09,11.09,0,0,0-2.56,2,10.83,10.83,0,0,0-.29,2.5A11,11,0,0,0,171,347.18Z" style="fill:#263238;opacity:0.2"></path>
    </g>
    <g id="freepik--Sun--inject-70">
        <circle cx="110" cy="104.5" r="23" style="fill:#407BFF"></circle>
    </g>
    <g id="freepik--Lighthouse--inject-70">
        <polygon points="251.66 295.76 237.62 326 185.24 334.1 146.89 311.96 160.93 281.72 213.31 273.62 251.66 295.76" style="fill:#455a64"></polygon>
        <polygon points="185.24 334.1 185.24 339.31 237.62 331.21 237.62 326 185.24 334.1" style="fill:#263238"></polygon>
        <polygon points="251.66 295.76 251.66 300.96 237.62 331.21 237.62 326 251.66 295.76" style="fill:#263238"></polygon>
        <polygon points="185.24 334.1 185.24 339.31 146.89 317.17 146.89 311.96 185.24 334.1" style="fill:#37474f"></polygon>
        <polygon points="221.61 152.85 229.74 321.71 188.11 328.15 191.52 157.54 221.61 152.85" style="fill:#f5f5f5"></polygon>
        <polygon points="229.74 321.71 240.89 297.68 229.73 135.24 221.61 152.85 229.74 321.71" style="fill:#ebebeb"></polygon>
        <polygon points="168.79 144.67 157.63 310.56 188.11 328.15 191.52 157.54 168.79 144.67" style="fill:#ebebeb"></polygon>
        <polygon points="157.63 310.56 188.11 328.15 188.49 309.19 158.87 292.12 157.63 310.56" style="fill:#407BFF"></polygon>
        <polygon points="160.11 273.69 188.87 290.24 189.25 271.28 161.35 255.26 160.11 273.69" style="fill:#407BFF"></polygon>
        <polygon points="162.59 236.83 189.63 252.32 190 233.37 163.83 218.4 162.59 236.83" style="fill:#407BFF"></polygon>
        <polygon points="165.07 199.96 190.38 214.41 190.76 195.46 166.31 181.53 165.07 199.96" style="fill:#407BFF"></polygon>
        <polygon points="167.55 163.1 191.14 176.5 191.52 157.54 168.79 144.67 167.55 163.1" style="fill:#407BFF"></polygon>
        <g style="opacity:0.1">
            <polygon points="157.63 310.56 188.11 328.15 188.49 309.19 158.87 292.12 157.63 310.56"></polygon>
            <polygon points="160.11 273.69 188.87 290.24 189.25 271.28 161.35 255.26 160.11 273.69"></polygon>
            <polygon points="162.59 236.83 189.63 252.32 190 233.37 163.83 218.4 162.59 236.83"></polygon>
            <polygon points="165.07 199.96 190.38 214.41 190.76 195.46 166.31 181.53 165.07 199.96"></polygon>
            <polygon points="167.55 163.1 191.14 176.5 191.52 157.54 168.79 144.67 167.55 163.1"></polygon>
        </g>
        <polygon points="191.14 176.5 222.51 171.61 221.61 152.85 191.52 157.54 191.14 176.5" style="fill:#407BFF"></polygon>
        <polygon points="223.42 190.38 190.76 195.46 190.38 214.41 224.32 209.14 223.42 190.38" style="fill:#407BFF"></polygon>
        <polygon points="225.22 227.9 190 233.37 189.63 252.32 226.13 246.66 225.22 227.9" style="fill:#407BFF"></polygon>
        <polygon points="227.03 265.42 189.25 271.28 188.87 290.24 227.93 284.19 227.03 265.42" style="fill:#407BFF"></polygon>
        <polygon points="228.83 302.95 188.49 309.19 188.11 328.15 229.74 321.71 228.83 302.95" style="fill:#407BFF"></polygon>
        <polygon points="221.61 152.85 229.73 135.24 230.97 153.29 222.51 171.61 221.61 152.85" style="fill:#407BFF"></polygon>
        <polygon points="224.32 209.14 233.45 189.38 232.21 171.34 223.42 190.38 224.32 209.14" style="fill:#407BFF"></polygon>
        <polygon points="226.13 246.66 235.93 225.48 234.69 207.43 225.22 227.9 226.13 246.66" style="fill:#407BFF"></polygon>
        <polygon points="227.03 265.42 237.17 243.53 238.41 261.58 227.93 284.19 227.03 265.42" style="fill:#407BFF"></polygon>
        <polygon points="239.65 279.63 228.83 302.95 229.74 321.71 240.89 297.68 239.65 279.63" style="fill:#407BFF"></polygon>
        <g style="opacity:0.1">
            <polygon points="221.61 152.85 229.73 135.24 230.97 153.29 222.51 171.61 221.61 152.85"></polygon>
            <polygon points="224.32 209.14 233.45 189.38 232.21 171.34 223.42 190.38 224.32 209.14"></polygon>
            <polygon points="226.13 246.66 235.93 225.48 234.69 207.43 225.22 227.9 226.13 246.66"></polygon>
            <polygon points="227.03 265.42 237.17 243.53 238.41 261.58 227.93 284.19 227.03 265.42"></polygon>
            <polygon points="239.65 279.63 228.83 302.95 229.74 321.71 240.89 297.68 239.65 279.63"></polygon>
        </g>
        <polygon points="235.34 134.37 225.67 155.2 189.59 160.78 163.18 145.53 172.85 124.7 208.93 119.12 235.34 134.37" style="fill:#37474f"></polygon>
        <polygon points="235.34 124.98 225.67 145.81 189.59 151.39 163.18 136.14 172.85 115.31 208.93 109.73 235.34 124.98" style="fill:#455a64"></polygon>
        <polygon points="229.78 125.84 221.6 143.46 191.09 148.18 168.75 135.28 176.93 117.66 207.44 112.94 229.78 125.84" style="fill:#37474f"></polygon>
        <polygon points="235.34 134.37 235.34 124.98 225.67 145.81 225.67 155.2 235.34 134.37" style="fill:#263238"></polygon>
        <polygon points="189.59 160.78 189.59 151.39 163.18 136.14 163.18 145.53 189.59 160.78" style="fill:#263238"></polygon>
        <polygon points="224.21 126.7 217.53 141.1 192.58 144.96 174.31 134.42 181 120.01 205.95 116.16 224.21 126.7" style="fill:#37474f"></polygon>
        <polygon points="224.21 117.35 217.53 131.76 192.58 135.62 174.31 125.07 181 110.67 205.95 106.81 224.21 117.35" style="fill:#455a64"></polygon>
        <polygon points="217.53 141.1 217.53 131.76 224.21 117.35 224.21 126.7 217.53 141.1" style="fill:#263238"></polygon>
        <polygon points="192.58 144.96 192.58 135.62 174.58 125.22 174.31 134.42 192.58 144.96" style="fill:#263238"></polygon>
        <polygon points="216.09 100.79 216.09 130.56 193.1 134.12 193.1 104.35 216.09 100.79" style="fill:#fafafa"></polygon>
        <polygon points="216.09 130.56 216.09 100.79 222.25 87.52 222.25 117.29 216.09 130.56" style="fill:#ebebeb"></polygon>
        <polygon points="193.1 134.12 193.1 104.35 176.28 94.63 176.28 124.22 193.1 134.12" style="fill:#ebebeb"></polygon>
        <line x1="215.5" y1="144.79" x2="215.5" y2="136.25" style="fill:none;stroke:#e0e0e0;stroke-linecap:round;stroke-linejoin:round"></line>
        <line x1="209.39" y1="145.73" x2="209.39" y2="137.2" style="fill:none;stroke:#e0e0e0;stroke-linecap:round;stroke-linejoin:round"></line>
        <line x1="203.29" y1="146.67" x2="203.29" y2="138.14" style="fill:none;stroke:#e0e0e0;stroke-linecap:round;stroke-linejoin:round"></line>
        <line x1="197.19" y1="147.62" x2="197.19" y2="139.08" style="fill:none;stroke:#e0e0e0;stroke-linecap:round;stroke-linejoin:round"></line>
        <line x1="221.6" y1="143.84" x2="221.6" y2="135.31" style="fill:none;stroke:#e0e0e0;stroke-linecap:round;stroke-linejoin:round"></line>
        <line x1="223.64" y1="139.44" x2="223.64" y2="130.9" style="fill:none;stroke:#e0e0e0;stroke-linecap:round;stroke-linejoin:round"></line>
        <line x1="225.69" y1="135.03" x2="225.69" y2="126.5" style="fill:none;stroke:#e0e0e0;stroke-linecap:round;stroke-linejoin:round"></line>
        <line x1="227.73" y1="130.63" x2="227.73" y2="122.09" style="fill:none;stroke:#e0e0e0;stroke-linecap:round;stroke-linejoin:round"></line>
        <line x1="229.78" y1="126.22" x2="229.78" y2="117.69" style="fill:none;stroke:#e0e0e0;stroke-linecap:round;stroke-linejoin:round"></line>
        <line x1="225.31" y1="123.64" x2="225.31" y2="115.11" style="fill:none;stroke:#e0e0e0;stroke-linecap:round;stroke-linejoin:round"></line>
        <line x1="191.09" y1="148.56" x2="191.09" y2="140.03" style="fill:none;stroke:#e0e0e0;stroke-linecap:round;stroke-linejoin:round"></line>
        <line x1="186.62" y1="145.98" x2="186.62" y2="137.45" style="fill:none;stroke:#e0e0e0;stroke-linecap:round;stroke-linejoin:round"></line>
        <line x1="182.15" y1="143.4" x2="182.15" y2="134.87" style="fill:none;stroke:#e0e0e0;stroke-linecap:round;stroke-linejoin:round"></line>
        <line x1="177.68" y1="140.82" x2="177.68" y2="132.29" style="fill:none;stroke:#e0e0e0;stroke-linecap:round;stroke-linejoin:round"></line>
        <line x1="173.22" y1="138.24" x2="173.22" y2="129.71" style="fill:none;stroke:#e0e0e0;stroke-linecap:round;stroke-linejoin:round"></line>
        <line x1="168.75" y1="135.67" x2="168.75" y2="127.13" style="fill:none;stroke:#e0e0e0;stroke-linecap:round;stroke-linejoin:round"></line>
        <line x1="170.79" y1="131.26" x2="170.79" y2="122.73" style="fill:none;stroke:#e0e0e0;stroke-linecap:round;stroke-linejoin:round"></line>
        <line x1="172.84" y1="126.86" x2="172.84" y2="118.33" style="fill:none;stroke:#e0e0e0;stroke-linecap:round;stroke-linejoin:round"></line>
        <line x1="174.88" y1="122.46" x2="174.88" y2="113.92" style="fill:none;stroke:#e0e0e0;stroke-linecap:round;stroke-linejoin:round"></line>
        <path d="M176.28,112.8,170,127.16l21.24,12.26,29.64-4.58,7.56-16.3-6.23-3.6v-2.31l8,4.63a1,1,0,0,1,.4,1.29l-8.17,17.62a1,1,0,0,1-.76.56l-30.51,4.72-.15,0a1,1,0,0,1-.5-.14l-22.34-12.89a1,1,0,0,1-.41-1.29l8.18-17.8a1,1,0,0,1,.25-.34" style="fill:#fafafa"></path>
        <polygon points="183.31 128.36 184.31 128.95 184.31 99.21 183.31 98.63 183.31 128.36" style="fill:#37474f"></polygon>
        <polygon points="205.1 102.49 204.1 102.64 204.1 132.41 205.1 132.26 205.1 102.49" style="fill:#37474f"></polygon>
        <polygon points="193.6 134.04 193.6 104.27 193.1 104.35 192.6 104.05 192.6 133.82 193.1 134.12 193.6 134.04" style="fill:#37474f"></polygon>
        <polygon points="176.78 94.81 175.78 94.22 175.78 123.93 176.78 124.52 176.78 94.81" style="fill:#37474f"></polygon>
        <polygon points="216.59 129.48 216.59 99.71 216.09 100.79 215.59 100.87 215.59 130.64 216.09 130.56 216.59 129.48" style="fill:#37474f"></polygon>
        <polygon points="221.75 118.37 222.75 116.51 222.75 86.42 221.75 88.57 221.75 118.37" style="fill:#37474f"></polygon>
        <path d="M224.75,90.7V86.39h-1.12a16,16,0,0,0-6.34-6.09c-10-5.75-26.1-5.75-36,0a16.05,16.05,0,0,0-6.35,6.09h-1.12v4.32h0c0,3.76,2.49,7.53,7.47,10.4,9.95,5.75,26.09,5.75,36,0C222.27,98.24,224.75,94.47,224.75,90.7Z" style="fill:#37474f"></path>
        <path d="M217.29,76c10,5.75,10,15.06,0,20.81s-26.1,5.75-36,0-10-15.06,0-20.81S207.33,70.26,217.29,76Z" style="fill:#455a64"></path>
        <path d="M199.26,64.59A20.66,20.66,0,0,0,178.6,85.25h0c0,3,2,6.1,6,8.43,8.06,4.66,21.14,4.66,29.21,0,4-2.33,6-5.38,6-8.43A20.66,20.66,0,0,0,199.26,64.59Z" style="fill:#37474f"></path>
        <path d="M206.8,67.27c-4.76-2.34-14.51-2.84-18.44,2.93s7,15.06,18.22,15.73S222,74.75,206.8,67.27Z" style="fill:#455a64;opacity:0.5"></path>
        <path d="M213.87,93.68a13.71,13.71,0,0,0,4.65-4.13c-6.93,6.29-21.3,6.85-30,3.26s-9.38-9.82-8.81-14.22a20.63,20.63,0,0,0-1.12,6.66h0c0,3,2,6.1,6,8.43C192.72,98.34,205.8,98.34,213.87,93.68Z" style="fill:#263238;opacity:0.5"></path>
        <path d="M198.09,68c0-1.64,0-6.79,0-6.79h2.29s0,5.15,0,6.79C200.4,68.83,198.12,68.83,198.09,68Z" style="fill:#263238"></path>
        <circle cx="199.26" cy="60.71" r="3.02" style="fill:#455a64"></circle>
        <path d="M198.27,58.52c0-1.39,0-3.39,0-5.78s0-5.17.05-8.16.09-6.17.13-9.36c.11-6.37.27-12.74.47-17.52s.32-8,.32-8,.17,3.18.33,8,.36,11.15.46,17.52c0,3.19.09,6.37.13,9.36s0,5.78.06,8.16,0,4.39,0,5.78C200.23,59.22,198.29,59.22,198.27,58.52Z" style="fill:#263238"></path>
        <polygon points="331.29 328.74 331.29 291.22 233.8 347.5 233.8 385.03 331.29 328.74" style="fill:#fafafa"></polygon>
        <polygon points="331.29 291.22 233.8 347.5 233.8 366.87 331.29 310.56 331.29 291.22" style="fill:#f5f5f5"></polygon>
        <polygon points="185.01 356.88 185.01 319.36 209.44 309.98 233.8 347.5 233.8 385.03 185.01 356.88" style="fill:#ebebeb"></polygon>
        <polygon points="333.27 294.74 306.93 253.7 306.93 249 337.34 297.08 333.27 294.74" style="fill:#455a64"></polygon>
        <polygon points="235.78 351.02 209.44 309.98 209.44 305.29 239.88 353.38 235.78 351.02" style="fill:#455a64"></polygon>
        <polygon points="306.93 249 209.41 305.29 239.88 353.38 337.35 297.1 306.93 249" style="fill:#37474f"></polygon>
        <polygon points="317.71 308.41 290.67 300.6 320.15 307 317.71 308.41" style="fill:#263238"></polygon>
        <polygon points="209.44 309.98 183.02 320.54 178.96 318.19 209.44 305.29 209.44 309.98" style="fill:#37474f"></polygon>
        <path d="M306.9,249s-97.46,56.29-97.46,56.29L179,318.19l97.65-56.38Z" style="fill:#263238"></path>
        <polygon points="183.02 320.54 185.01 320.54 185.01 319.74 183.02 320.54" style="fill:#263238"></polygon>
        <polygon points="233.8 385.03 233.8 375.65 331.29 319.36 331.29 328.74 233.8 385.03" style="fill:#455a64"></polygon>
        <polygon points="233.8 375.65 185.01 347.48 185.01 356.88 233.8 385.03 233.8 375.65" style="fill:#37474f"></polygon>
        <path d="M217.54,361.57V347.82c0-2.76,1.82-3.95,4.07-2.66a9.25,9.25,0,0,1,4.08,7.33v13.78Z" style="fill:#407BFF"></path>
        <path d="M217.54,361.57V347.82c0-2.76,1.82-3.95,4.07-2.66a9.25,9.25,0,0,1,4.08,7.33v13.78Z" style="opacity:0.30000000000000004"></path>
        <path d="M224.34,348a8.09,8.09,0,0,0-2.73-2.86c-2.25-1.29-4.07-.1-4.07,2.66v13.75l8.15,4.7s-6.71-6.72-6.38-7.56C219.56,358.09,222.71,351.44,224.34,348Z" style="opacity:0.1"></path>
        <path d="M193.16,347.49V333.74c0-2.76,1.83-3.95,4.08-2.66a9.25,9.25,0,0,1,4.08,7.34v13.77Z" style="fill:#407BFF"></path>
        <path d="M193.16,347.49V333.74c0-2.76,1.83-3.95,4.08-2.66a9.25,9.25,0,0,1,4.08,7.34v13.77Z" style="opacity:0.30000000000000004"></path>
        <path d="M200,333.94a8,8,0,0,0-2.72-2.86c-2.25-1.29-4.08-.1-4.08,2.66v13.75l8.16,4.7s-6.71-6.72-6.38-7.56C195.18,344,198.34,337.36,200,333.94Z" style="opacity:0.1"></path>
        <path d="M250.06,361.57v-6.74c0-2.76-1.82-3.95-4.07-2.66a9.23,9.23,0,0,0-4.08,7.34v6.76Z" style="fill:#407BFF"></path>
        <path d="M250.06,361.57v-6.74c0-2.76-1.82-3.95-4.07-2.66a9.23,9.23,0,0,0-4.08,7.34v6.76Z" style="opacity:0.30000000000000004"></path>
        <path d="M249.62,352.83c-.67-1.24-2-1.57-3.63-.66a9.06,9.06,0,0,0-3.66,4.87Z" style="opacity:0.1"></path>
        <path d="M323.18,319.35v-6.73c0-2.76-1.83-4-4.08-2.66a9.25,9.25,0,0,0-4.08,7.33v6.77Z" style="fill:#407BFF"></path>
        <path d="M323.18,319.35v-6.73c0-2.76-1.83-4-4.08-2.66a9.25,9.25,0,0,0-4.08,7.33v6.77Z" style="opacity:0.30000000000000004"></path>
        <path d="M322.74,310.62c-.67-1.24-2.05-1.58-3.64-.66a9,9,0,0,0-3.65,4.87Z" style="opacity:0.1"></path>
        <polygon points="259.98 369.89 259.98 346.44 266.96 336.37 292.48 351.13 292.48 388.65 259.98 369.89" style="fill:#f0f0f0"></polygon>
        <polygon points="266.96 336.37 292.48 351.13 292.48 370.42 259.98 351.65 259.98 346.44 266.96 336.37" style="fill:#e0e0e0"></polygon>
        <polygon points="337.55 362.64 337.55 324.92 315.04 319.35 292.48 351.13 292.48 388.65 337.55 362.64" style="fill:#fafafa"></polygon>
        <polygon points="286.61 359.22 315.04 319.35 315.04 314.67 282.54 361.56 286.61 359.22" style="fill:#37474f"></polygon>
        <polygon points="290.67 300.6 315.04 314.67 282.54 361.56 258.17 347.49 290.67 300.6" style="fill:#455a64"></polygon>
        <polygon points="315.04 319.35 343.48 326.39 347.54 324.05 315.04 314.67 315.04 319.35" style="fill:#263238"></polygon>
        <polygon points="290.67 300.6 315.04 314.67 347.54 324.05 323.17 309.99 290.67 300.6" style="fill:#37474f"></polygon>
        <polygon points="343.48 326.39 337.55 326.39 337.55 324.92 343.48 326.39"></polygon>
        <path d="M323.16,371V343.43c0-5.52-3.63-7.9-8.12-5.31s-8.13,9.17-8.13,14.69v27.53Z" style="fill:#37474f"></path>
        <path d="M320.56,344.33l-2.26,1.3-1,.58-1.76,1-1,.57-1.76,1-1,.58-2.26,1.3a12.66,12.66,0,0,1,2.26-6.78,9.66,9.66,0,0,1,1-1.29,9,9,0,0,1,1.76-1.59c.17-.12.33-.22.5-.32s.34-.18.5-.26a4.41,4.41,0,0,1,1.76-.45,3,3,0,0,1,1,.14C319.67,340.6,320.56,342.07,320.56,344.33Z" style="fill:#e0e0e0"></path>
        <path d="M315.54,340.46v6.77l-1,.57V341c.17-.12.33-.22.5-.32S315.38,340.54,315.54,340.46Z" style="fill:#37474f"></path>
        <path d="M318.3,340.15v5.48l-1,.58V340A3,3,0,0,1,318.3,340.15Z" style="fill:#37474f"></path>
        <path d="M312.78,342.63v6.19l-1,.58v-5.48A9.66,9.66,0,0,1,312.78,342.63Z" style="fill:#37474f"></path>
        <polygon points="309.52 376.59 320.56 370.22 320.56 346.67 309.52 353.04 309.52 376.59" style="fill:#455a64"></polygon>
    </g>
</svg>