<svg width="89" height="122" viewBox="0 0 89 122" fill="none" xmlns="http://www.w3.org/2000/svg">
<path fill-rule="evenodd" clip-rule="evenodd" d="M2.64072 1.71643L2.17857 0L1.71643 1.71643L0 2.17857L1.71643 2.64072L2.17857 4.35714L2.64072 2.64072L4.35714 2.17857L2.64072 1.71643ZM2.64072 40.9307L2.17857 39.2143L1.71643 40.9307L0 41.3929L1.71643 41.855L2.17857 43.5714L2.64072 41.855L4.35714 41.3929L2.64072 40.9307ZM2.17857 78.4286L2.64072 80.145L4.35714 80.6071L2.64072 81.0693L2.17857 82.7857L1.71643 81.0693L0 80.6071L1.71643 80.145L2.17857 78.4286ZM2.64072 119.359L2.17857 117.643L1.71643 119.359L0 119.821L1.71643 120.284L2.17857 122L2.64072 120.284L4.35714 119.821L2.64072 119.359ZM41.3929 0L41.855 1.71643L43.5714 2.17857L41.855 2.64072L41.3929 4.35714L40.9307 2.64072L39.2143 2.17857L40.9307 1.71643L41.3929 0ZM41.855 40.9307L41.3929 39.2143L40.9307 40.9307L39.2143 41.3929L40.9307 41.855L41.3929 43.5714L41.855 41.855L43.5714 41.3929L41.855 40.9307ZM41.3929 78.4286L41.855 80.145L43.5714 80.6071L41.855 81.0693L41.3929 82.7857L40.9307 81.0693L39.2143 80.6071L40.9307 80.145L41.3929 78.4286ZM41.855 119.359L41.3929 117.643L40.9307 119.359L39.2143 119.821L40.9307 120.284L41.3929 122L41.855 120.284L43.5714 119.821L41.855 119.359ZM80.6071 0L81.0693 1.71643L82.7857 2.17857L81.0693 2.64072L80.6071 4.35714L80.145 2.64072L78.4286 2.17857L80.145 1.71643L80.6071 0ZM81.0693 40.9307L80.6071 39.2143L80.145 40.9307L78.4286 41.3929L80.145 41.855L80.6071 43.5714L81.0693 41.855L82.7857 41.3929L81.0693 40.9307ZM80.6071 78.4286L81.0693 80.145L82.7857 80.6071L81.0693 81.0693L80.6071 82.7857L80.145 81.0693L78.4286 80.6071L80.145 80.145L80.6071 78.4286ZM81.0693 119.359L80.6071 117.643L80.145 119.359L78.4286 119.821L80.145 120.284L80.6071 122L81.0693 120.284L82.7857 119.821L81.0693 119.359ZM119.821 0L120.284 1.71643L122 2.17857L120.284 2.64072L119.821 4.35714L119.359 2.64072L117.643 2.17857L119.359 1.71643L119.821 0ZM120.284 40.9307L119.821 39.2143L119.359 40.9307L117.643 41.3929L119.359 41.855L119.821 43.5714L120.284 41.855L122 41.3929L120.284 40.9307ZM119.821 78.4286L120.284 80.145L122 80.6071L120.284 81.0693L119.821 82.7857L119.359 81.0693L117.643 80.6071L119.359 80.145L119.821 78.4286ZM120.284 119.359L119.821 117.643L119.359 119.359L117.643 119.821L119.359 120.284L119.821 122L120.284 120.284L122 119.821L120.284 119.359Z" fill="white"/>
</svg>
